<svg xmlns="http://www.w3.org/2000/svg" width="75" height="80" viewBox="0 0 75 80"><g><g><g><path fill="#111a2b" d="M37.5.211L0 18.429c0 16.966 12.602 51.808 37.5 60.803C62.397 70.237 75 35.395 75 18.43z"/></g><g><g><path fill="#fbb03b" d="M17.931 46.479h.035c.013 0 .003-.02.006-.029V38.371a.666.666 0 1 0-.26 0v7.827c-.003.006.003.02-.005.02h-7.91v.26h8.065z"/></g><g><path fill="#fbb03b" d="M57.316 46.217h-.023c-.009.001-.003-.013-.004-.019V38.371a.666.666 0 1 0-.261 0v8.08c.002.008-.007.028.006.028h8.169v-.262h-7.84z"/></g><g><path fill="#fbb03b" d="M9.998 24.197a.666.666 0 0 0-1.077-.772l-.55-.318-5.653-3.26-.159.21 5.68 3.277.551.317a.665.665 0 0 0 1.208.546z"/></g><g><g><path fill="#fbb03b" d="M66.63 23.107l-.551.318a.666.666 0 1 0 .13.226l.55-.317 5.657-3.263-.151-.214z"/></g></g><g><path fill="#fbb03b" d="M22.009 54.597a.666.666 0 0 0-.653.535H13.803v.261H21.357a.666.666 0 1 0 .653-.796z"/></g><g><path fill="#fbb03b" d="M54.31 55.132h-.636a.666.666 0 1 0 0 .261h7.552v-.261h-2.219z"/></g></g><g><path fill="none" stroke="#4a89c8" stroke-miterlimit="50" stroke-width="2.81" d="M37.5 3.395v0L3.022 20.145c0 15.599 11.587 47.633 34.478 55.903 22.89-8.27 34.478-40.304 34.478-55.903z"/></g><g><path fill="#4a89c8" d="M45.998 57.06c-2.646 0-6.068 2.67-6.068 8.776h-1.183c0-7.581 2.747-9.311 2.747-12.16 0-2.85-2.137-4.377-3.994-7.328-1.857 2.951-3.994 4.478-3.994 7.327 0 2.85 2.747 4.58 2.747 12.161H35.07c0-6.106-3.422-8.777-6.068-8.777-2.646 0-4.376 2.366-4.376 4.503s1.552 4.453 2.62 4.453c0-4.046 2.494-3.817 2.494-3.817 1.883 0 3.18 2.392 3.18 3.638h-2.646v2.366h5.292c0 2.468-3.053 2.163-3.053 2.163 0 1.883 2.188 2.214 3.053 1.501 0 2.366 1.934 3.46 1.934 3.46s1.934-1.094 1.934-3.46c.865.713 3.053.382 3.053-1.5 0 0-3.053.304-3.053-2.164h5.292v-2.366H42.08c0-1.246 1.297-3.638 3.18-3.638 0 0 2.493-.229 2.493 3.817 1.069 0 2.62-2.316 2.62-4.453 0-2.137-1.73-4.503-4.375-4.503z"/></g><g><path fill="#274470" d="M32.018 24.042a6.815 6.815 0 0 1-1.21-1.88 6.923 6.923 0 0 1 .23-5.957 5.807 5.807 0 1 0-8.096 7.76h-1.933a8.806 8.806 0 0 0-8.806 8.806v.907a8.808 8.808 0 0 1 8.236-5.69h3.439a10.121 10.121 0 0 1 7.955-3.865h.258c-.025-.027-.048-.055-.073-.081z"/></g><g opacity=".75"><path fill="#274470" d="M43.614 24.843a7.385 7.385 0 0 1-1.22-2.017 7.513 7.513 0 0 1 .308-6.294 6.257 6.257 0 1 0-8.786 8.24h-2.083a9.487 9.487 0 0 0-9.487 9.487v.977a9.489 9.489 0 0 1 8.874-6.13h3.876a10.98 10.98 0 0 1 8.476-3.997h.279a7.593 7.593 0 0 1-.237-.266z"/></g><g opacity=".5"><path fill="#274470" d="M52.953 25.633a6.788 6.788 0 1 0-7.122.067h-2.26c-5.684 0-10.292 4.608-10.292 10.293v1.06c1.471-3.887 5.225-6.65 9.627-6.65h4.405c8.461 0 11.33.603 15.486-6.855-1.437 1.708-4.898 2.026-9.844 2.085z"/></g><g><g><text dominant-baseline="text-before-edge" style="line-height:18px;font-kerning:normal" fill="#fff" font-family="'Jura','Jura-Bold'" font-size="15" font-style="none" font-weight="700" transform="translate(23 31)"><tspan font-family="JuraBook">F B</tspan></text></g></g></g></g></svg>