<svg xmlns="http://www.w3.org/2000/svg" width="26" height="28" viewBox="0 0 26 28"><g><g opacity=".5"><path fill="none" stroke="#283141" stroke-miterlimit="50" stroke-width="2" d="M19.144 19.09c.118-.118 4.962-4.359 4.962-4.359v0l-.825-.353c-.472-.232-.35-.543-.236-.821.113-.359.948-3.175.948-3.175v0s-2.25.472-2.722.59c-.354.113-.471-.118-.59-.354-.117-.236-.707-1.528-.707-1.528v0s-2.481 2.825-2.599 2.938c-.472.354-.948 0-.83-.471 0-.472 1.302-6.114 1.302-6.114v0s-1.42.821-1.892 1.057c-.354.236-.594.236-.83-.236-.24-.354-2.014-3.764-2.014-3.764v0s-1.77 3.41-2.005 3.764c-.236.472-.472.472-.83.236-.472-.236-1.892-1.057-1.892-1.057v0s1.302 5.642 1.302 6.114c.118.471-.354.825-.83.471-.118-.118-2.6-2.938-2.6-2.938v0s-.589 1.287-.707 1.523-.236.467-.59.354c-.476-.118-2.721-.59-2.721-.59v0s.83 2.817.948 3.175c.113.283.236.59-.236.82l-.825.36v0s4.84 4.24 4.962 4.358c.24.236.472.354.24 1.061-.24.708-.476 1.656-.476 1.656v0s4.49-.948 4.967-1.066c.41-.043.864.118.864.59 0 .471-.274 5.32-.274 5.32v0h1.415v0s-.274-4.844-.274-5.32c0-.477.449-.633.868-.59.472.118 4.963 1.066 4.963 1.066v0s-.236-.948-.472-1.656c-.236-.707 0-.825.236-1.061z"/></g></g></svg>