<svg xmlns="http://www.w3.org/2000/svg" width="18" height="20" viewBox="0 0 18 20"><g><g opacity=".5"><path fill="#191f29" d="M15.068 7.133a4.858 4.858 0 0 0-4.85-4.85H4.227a1.492 1.492 0 0 0-1.5 1.5v9.075a4.858 4.858 0 0 0 4.85 4.834h6.2a1.492 1.492 0 0 0 1.283-1.234zm2.284 0v9.534A3.775 3.775 0 0 1 13.893 20H7.577a7.142 7.142 0 0 1-7.134-7.142V3.783A3.783 3.783 0 0 1 4.227 0h5.983a7.133 7.133 0 0 1 7.133 7.133zm-10 3.575a1.167 1.167 0 0 1-.959 1.167h-.175c-.63 0-1.141-.511-1.141-1.142v-4.75A1.508 1.508 0 0 1 6.393 4.6h3.3a1.208 1.208 0 0 1 1.175 1 .834.834 0 0 1 0 .142c0 .63-.51 1.141-1.141 1.141H8.185a.833.833 0 0 0-.833.834z"/></g></g></svg>